<svg width="72" height="72" viewBox="0 0 72 72" fill="none" xmlns="http://www.w3.org/2000/svg"><rect opacity=".6" y=".503" width="72" height="72" rx="7" fill="#17181B"/><path d="M31.6 34.333a1.334 1.334 0 0 0 1.88 0 1.334 1.334 0 0 0 0-1.88l-8.36-8.4a1.339 1.339 0 0 0-1.893 1.894l8.373 8.386ZM48 39.667A1.333 1.333 0 0 0 46.667 41v4.787l-6.08-6.12a1.358 1.358 0 0 0-1.92 1.92l6.12 6.08H40a1.333 1.333 0 0 0 0 2.666h8c.174-.002.346-.038.507-.106.326-.136.584-.394.72-.72.068-.16.104-.333.106-.507v-8A1.333 1.333 0 0 0 48 39.667Zm1.227-15.174a1.333 1.333 0 0 0-.72-.72 1.334 1.334 0 0 0-.507-.106h-8a1.333 1.333 0 0 0 0 2.666h4.787l-21.734 21.72a1.334 1.334 0 0 0 0 1.894 1.335 1.335 0 0 0 1.894 0l21.72-21.734V33a1.333 1.333 0 1 0 2.666 0v-8a1.333 1.333 0 0 0-.106-.507Z" fill="#ffffff" stroke="#ffffff"/></svg>