<svg width="72" height="72" viewBox="0 0 72 72" fill="none" xmlns="http://www.w3.org/2000/svg"><rect opacity=".7" y=".503" width="72" height="72" rx="7" fill="#17181B"/><g clip-path="url(#a)"><path d="M49.333 41h-2.666v-4a1.333 1.333 0 0 0-1.334-1.333h-8V33H40a1.333 1.333 0 0 0 1.333-1.333v-8A1.333 1.333 0 0 0 40 22.333h-8a1.334 1.334 0 0 0-1.333 1.334v8A1.333 1.333 0 0 0 32 33h2.667v2.667h-8A1.333 1.333 0 0 0 25.333 37v4h-2.666a1.333 1.333 0 0 0-1.334 1.333v8a1.333 1.333 0 0 0 1.334 1.334h8A1.333 1.333 0 0 0 32 50.333v-8A1.333 1.333 0 0 0 30.667 41H28v-2.667h16V41h-2.667A1.333 1.333 0 0 0 40 42.333v8a1.333 1.333 0 0 0 1.333 1.334h8a1.333 1.333 0 0 0 1.334-1.334v-8A1.333 1.333 0 0 0 49.333 41Zm-20 2.667V49H24v-5.333h5.333Zm4-13.334V25h5.334v5.333h-5.334ZM48 49h-5.333v-5.333H48V49Z" fill="#ffffff" stroke="#ffffff"/></g><defs><clipPath id="a"><path fill="#fff" d="M20 21h32v32H20z"/></clipPath></defs></svg>