<svg width="72" height="73" viewBox="0 0 72 73" fill="none" xmlns="http://www.w3.org/2000/svg"><rect opacity=".8" y=".503" width="72" height="72" rx="7" fill="#17181B"/><path d="M33.333 39.667A1.334 1.334 0 0 0 32 41v8a1.334 1.334 0 0 0 2.667 0v-8a1.334 1.334 0 0 0-1.334-1.333ZM26.667 45a1.333 1.333 0 0 0-1.334 1.333V49A1.333 1.333 0 1 0 28 49v-2.667A1.333 1.333 0 0 0 26.667 45Zm20-21.333A1.333 1.333 0 0 0 45.333 25v24A1.333 1.333 0 1 0 48 49V25a1.334 1.334 0 0 0-1.333-1.333ZM40 33a1.333 1.333 0 0 0-1.333 1.333V49a1.334 1.334 0 0 0 2.666 0V34.333A1.333 1.333 0 0 0 40 33Z" fill="#ffffff" stroke="#ffffff"/></svg>