<svg width="72" height="72" viewBox="0 0 72 72" fill="none" xmlns="http://www.w3.org/2000/svg"><rect y=".503" width="72" height="72" rx="7" fill="#17181B"/><path d="M46.52 33.733A1.333 1.333 0 0 0 45.333 33h-6.666v-8a1.333 1.333 0 0 0-.92-1.333 1.334 1.334 0 0 0-1.494.48L25.587 38.813a1.334 1.334 0 0 0-.107 1.334 1.333 1.333 0 0 0 1.187.853h6.666v8a1.333 1.333 0 0 0 1.94 1.19c.187-.095.35-.233.474-.403L46.413 35.12a1.333 1.333 0 0 0 .107-1.387ZM36 44.893v-5.226a1.333 1.333 0 0 0-1.333-1.334h-5.334L36 29.107v5.226a1.333 1.333 0 0 0 1.333 1.334h5.334L36 44.893Z" fill="#ffffff" stroke="#ffffff"/></svg>