<svg width="72" height="72" viewBox="0 0 72 72" fill="none" xmlns="http://www.w3.org/2000/svg"><rect opacity=".5" y=".503" width="72" height="72" rx="7" fill="#17181B"/><path d="M48 27.667h-1.333v-1.334a1.333 1.333 0 1 0-2.667 0v1.334H28v-1.334a1.333 1.333 0 1 0-2.667 0v1.334H24A1.333 1.333 0 0 0 22.667 29v8A1.333 1.333 0 0 0 24 38.333h1.333v9.334a1.333 1.333 0 1 0 2.667 0v-9.334h16v9.334a1.333 1.333 0 1 0 2.667 0v-9.334H48A1.334 1.334 0 0 0 49.333 37v-8A1.333 1.333 0 0 0 48 27.667Zm-22.667 6.026v-3.36h3.36l-3.36 3.36Zm1.787 1.974 5.333-5.334h4.44l-5.333 5.334h-4.44Zm8.2 0 5.333-5.334h4.24l-5.333 5.334h-4.24Zm11.347 0H43.32l3.347-3.347v3.347Z" fill="#ffffff" stroke="#ffffff"/></svg>