<svg width="72" height="73" viewBox="0 0 72 73" fill="none" xmlns="http://www.w3.org/2000/svg"><rect opacity=".9" y=".503" width="72" height="72" rx="7" fill="#17181B"/><path d="M42.667 33v-2.667a6.667 6.667 0 0 0-13.334 0V33a4 4 0 0 0-4 4v9.333a4 4 0 0 0 4 4h13.334a4 4 0 0 0 4-4V37a4 4 0 0 0-4-4ZM32 30.333a4 4 0 0 1 8 0V33h-8v-2.667Zm12 16a1.333 1.333 0 0 1-1.333 1.334H29.333A1.333 1.333 0 0 1 28 46.333V37a1.333 1.333 0 0 1 1.333-1.333h13.334A1.333 1.333 0 0 1 44 37v9.333Z" fill="#ffffff" stroke="#ffffff"/></svg>