<svg width="33" height="32" viewBox="0 0 33 32" fill="none" xmlns="http://www.w3.org/2000/svg">
<path d="M16.134 22H9.13403C8.58203 22 8.13403 21.552 8.13403 21C8.13403 20.448 8.58203 20 9.13403 20H16.134C16.686 20 17.134 20.448 17.134 21C17.134 21.552 16.686 22 16.134 22Z" fill="#FF7A68"/>
<path d="M23.134 12H9.13403C8.58203 12 8.13403 11.552 8.13403 11C8.13403 10.448 8.58203 10 9.13403 10H23.134C23.686 10 24.134 10.448 24.134 11C24.134 11.552 23.686 12 23.134 12Z" fill="#FF7A68"/>
<path d="M23.134 17H9.13403C8.58203 17 8.13403 16.552 8.13403 16C8.13403 15.448 8.58203 15 9.13403 15H23.134C23.686 15 24.134 15.448 24.134 16C24.134 16.552 23.686 17 23.134 17Z" fill="#FF7A68"/>
</svg>
