<?xml version="1.0" encoding="utf-8"?>
<svg width="100" height="100" viewBox="0 0 28 28" fill="none" xmlns="http://www.w3.org/2000/svg">
  <path d="M14 28C21.732 28 28 21.732 28 14C28 6.26801 21.732 0 14 0C6.26801 0 0 6.26801 0 14C0 21.732 6.26801 28 14 28Z" fill="#F4FBFF"/>
  <path d="M14 17.7975V11.5752L20.2221 14.3206L14 17.7975Z" fill="#131313"/>
  <path d="M14.0001 17.7975V11.5752L7.77783 14.3206L14.0001 17.7975Z" fill="#2F2F2F"/>
  <path d="M14 11.5752V3.88916L20.2221 14.3206L14 11.5752Z" fill="#2A2A2A"/>
  <path d="M14.0001 11.5752V3.88916L7.77783 14.3206L14.0001 11.5752Z" fill="#777879"/>
  <path d="M14 24.1115L20.2222 15.5554L14 19.0449V24.1115Z" fill="#292A2A"/>
  <path d="M14.0001 24.1115L7.77783 15.5554L14.0001 19.0449V24.1115Z" fill="#777879"/>
</svg>