<?xml version="1.0" encoding="UTF-8"?>
<svg version="1.1" xmlns="http://www.w3.org/2000/svg" width="200" height="200">
<path d="M0 0 C154.77 0 309.54 0 469 0 C469 154.77 469 309.54 469 469 C314.23 469 159.46 469 0 469 C0 314.23 0 159.46 0 0 Z " fill="#1A202E" transform="translate(0,0)"/>
<path d="M0 0 C3.3258409 2.062783 6.23502468 4.47004936 8 8 C8.09899788 10.15695425 8.13103229 12.31706147 8.13422108 14.47628403 C8.13657331 15.15214361 8.13892554 15.82800319 8.14134905 16.52434337 C8.14805835 18.81147181 8.14758025 21.09854368 8.14717102 23.38568115 C8.15046845 25.03305214 8.15419375 26.68042232 8.1583125 28.32779145 C8.16835443 32.87231981 8.17205281 37.41683497 8.17470181 41.96137285 C8.17859837 46.85584611 8.18817713 51.75030884 8.19691467 56.64477539 C8.21669728 68.4735112 8.22674749 80.30224789 8.23564246 92.13099611 C8.24002235 97.69697334 8.24538993 103.26294961 8.25063133 108.82892609 C8.26764527 127.32393573 8.28214045 145.81894476 8.28938007 164.31396103 C8.29129007 169.11588288 8.29321039 173.91780473 8.29516602 178.71972656 C8.29564976 179.91326761 8.2961335 181.10680865 8.2966319 182.3365176 C8.30493592 201.6802138 8.3302784 221.02384823 8.36274669 240.36751744 C8.39578639 260.21288876 8.41382603 280.05822866 8.41702431 299.90362763 C8.41919226 311.05191771 8.42798244 322.20011771 8.45348549 333.34838104 C8.4751503 342.84092891 8.48326374 352.33336483 8.47351871 361.82593462 C8.46896176 366.6712169 8.47094093 371.51626801 8.49028015 376.36151886 C8.50782537 380.79549881 8.50698482 385.22907747 8.49138286 389.66306117 C8.48899359 391.26875512 8.49339827 392.87447623 8.50521151 394.4801285 C8.52026326 396.6606929 8.51070658 398.83982301 8.49498463 401.02035141 C8.49644984 402.83796529 8.49644984 402.83796529 8.49794465 404.69229865 C7.7836839 409.43692484 5.47116325 412.42375366 2.25 415.875 C-1.18403289 417.59201644 -4.31601252 417.86964017 -8 417 C-11.32111098 414.91953393 -14.23180362 412.53639275 -16 409 C-16.10077564 406.8388103 -16.13468635 404.67442385 -16.1398077 402.51089191 C-16.14275912 401.83364355 -16.14571055 401.15639519 -16.14875141 400.45862415 C-16.15748162 398.16676583 -16.15902659 395.87495774 -16.16062927 393.58308411 C-16.16535757 391.93230067 -16.17050812 390.2815184 -16.17604691 388.63073748 C-16.189987 384.07674203 -16.19754619 379.52275459 -16.2040199 374.96874321 C-16.2103811 371.06704695 -16.22045256 367.16536393 -16.23058056 363.26367591 C-16.26393999 350.40670672 -16.28543231 337.54972948 -16.30378041 324.69273117 C-16.30857345 321.34620527 -16.313557 317.99967969 -16.31858563 314.65315413 C-16.34955437 293.88434245 -16.37624786 273.11552802 -16.39300442 252.34669971 C-16.39695411 247.53378609 -16.40095707 242.72087251 -16.4050293 237.90795898 C-16.40603766 236.71168964 -16.40704602 235.51542029 -16.40808494 234.28290036 C-16.42509706 214.89781361 -16.46621082 195.5128544 -16.51705229 176.12782995 C-16.56878881 156.23838493 -16.59794145 136.34900557 -16.6052013 116.45949382 C-16.60986853 105.28708573 -16.62467187 94.11488651 -16.6649456 82.94254494 C-16.69919837 73.42876615 -16.71320421 63.91523389 -16.70052146 54.40139697 C-16.69468346 49.54575202 -16.69863863 44.69062876 -16.7286911 39.83506203 C-16.75597637 35.39038486 -16.75561369 30.9466019 -16.73318065 26.50190552 C-16.72994789 24.89349369 -16.73688334 23.28502281 -16.75497787 21.67670951 C-16.89784103 8.15968428 -16.89784103 8.15968428 -13.07948399 3.55926037 C-9.19841854 -0.07251232 -5.26124825 -1.03143176 0 0 Z " fill="#A8A8A8" transform="translate(242,29)"/>
<path d="M0 0 C3.97930185 2.26470141 6.54555467 4.63666402 8 9 C8.09274868 10.54689486 8.12910324 12.0974894 8.13142776 13.64716053 C8.13526891 14.60736727 8.13911005 15.567574 8.1430676 16.55687791 C8.14220112 17.61405745 8.14133463 18.67123699 8.14044189 19.76045227 C8.14341302 20.88175905 8.14638414 22.00306583 8.1494453 23.1583516 C8.1581533 26.93540917 8.15964232 30.71243512 8.16113281 34.48950195 C8.16522059 37.18953642 8.17076316 39.88956753 8.17617798 42.58959961 C8.18976457 49.93876234 8.19578649 57.28791962 8.20018864 64.63709283 C8.20295044 69.22508056 8.20718768 73.81306617 8.21169281 78.40105247 C8.22388578 91.1014216 8.23418512 103.80178903 8.2375679 116.50216389 C8.23778747 117.31514225 8.23800703 118.1281206 8.23823325 118.96573467 C8.23845153 119.78066831 8.23866981 120.59560195 8.2388947 121.43523055 C8.23933817 123.0866218 8.23978473 124.73801305 8.24023438 126.3894043 C8.2404558 127.20855299 8.24067723 128.02770169 8.24090537 128.87167307 C8.24485386 142.14646639 8.26230927 155.42120483 8.2855939 168.69597695 C8.30930155 182.32179262 8.32176948 195.94758074 8.32293582 209.57341737 C8.3238529 217.22512086 8.32961345 224.87675285 8.34775543 232.52843666 C8.36314851 239.04372537 8.36828159 245.55892048 8.36001733 252.07422391 C8.35610796 255.39856368 8.3586828 258.72256148 8.37107468 262.04690361 C8.38372321 265.65096482 8.37795558 269.25453943 8.36749268 272.8585968 C8.37554908 273.90908418 8.38360548 274.95957155 8.39190602 276.04189187 C8.35525615 281.42565701 8.12845291 285.39604104 5 290 C1.13677271 292.69527486 -2.39861076 293.60465359 -7.0390625 293.41796875 C-10.72748366 292.63179133 -12.44107505 290.7417053 -15 288 C-16.64521879 284.60188068 -17.25086269 281.88404934 -17.25726891 278.1251545 C-17.26694224 276.68502139 -17.26694224 276.68502139 -17.276811 275.21579468 C-17.2737138 274.16901389 -17.2706166 273.12223311 -17.26742554 272.04373169 C-17.27195665 270.92550518 -17.27648776 269.80727867 -17.28115618 268.65516651 C-17.29383734 264.90044034 -17.2921774 261.14585853 -17.29052734 257.39111328 C-17.29651024 254.70225483 -17.30325843 252.01340776 -17.31088257 249.32455444 C-17.32748968 242.77427979 -17.33299197 236.22404114 -17.33410732 229.6737472 C-17.33505788 224.34926411 -17.33916853 219.0247929 -17.34550858 213.70031357 C-17.36311972 198.60282514 -17.37234757 183.50536514 -17.37084763 168.40786637 C-17.37076772 167.59409567 -17.3706878 166.78032496 -17.37060547 165.94189453 C-17.37052371 165.12712976 -17.37044195 164.312365 -17.37035771 163.47291039 C-17.3695447 150.26679467 -17.38868628 137.06079297 -17.4168822 123.85471024 C-17.44560837 110.29323119 -17.45942267 96.73180775 -17.45769465 83.1702975 C-17.45703068 75.55713833 -17.46252585 67.94409872 -17.48405075 60.33096695 C-17.502259 53.8493985 -17.50661286 47.36800381 -17.4930319 40.88642086 C-17.48650047 37.58014349 -17.48856344 34.27426886 -17.5037384 30.96800995 C-17.51913339 27.38178602 -17.50991952 23.7964401 -17.49447632 20.2102356 C-17.50476344 19.16791625 -17.51505057 18.12559691 -17.52564943 17.05169213 C-17.46639441 10.83276792 -16.72345183 7.04903029 -13 2 C-8.74245794 -0.83836137 -4.99565637 -0.88425385 0 0 Z " fill="#A5A5A5" transform="translate(181,91)"/>
<path d="M0 0 C3.12578143 1.6720747 5.39281175 3.7856235 7 7 C7.09769318 8.52641968 7.1327883 10.05704528 7.13701439 11.58658218 C7.1446262 13.04480609 7.1446262 13.04480609 7.15239179 14.53248906 C7.15288955 15.60814523 7.15338731 16.68380141 7.15390015 17.79205322 C7.1582824 18.92883979 7.16266465 20.06562635 7.1671797 21.23686099 C7.18060776 25.07229696 7.18675553 28.90770994 7.19287109 32.74316406 C7.20023998 35.48246033 7.20903221 38.22175174 7.21765137 40.96104431 C7.24218818 49.20056955 7.25680435 57.44010084 7.26971143 65.67965138 C7.27342242 68.00617107 7.27739573 70.33269016 7.2814641 72.65920925 C7.30669955 87.10101287 7.32875659 101.54281741 7.34119225 115.98463821 C7.34412203 119.33074192 7.34708368 122.67684559 7.35009766 126.02294922 C7.35084371 126.85462587 7.35158976 127.68630253 7.35235842 128.54318151 C7.36501445 142.01853988 7.39824003 155.49376637 7.43989949 168.96906307 C7.48230316 182.79824802 7.50588546 196.62736542 7.51111281 210.45661521 C7.51452871 218.22352938 7.52630475 225.99023746 7.55921555 233.75708771 C7.58719578 240.37125301 7.59822443 246.98516999 7.58702008 253.59938988 C7.58182791 256.97455661 7.58747162 260.3487813 7.60948563 263.72394371 C7.63205624 267.38307087 7.62393662 271.04087983 7.60800171 274.70001221 C7.6218838 275.76674549 7.63576588 276.83347878 7.65006864 277.93253732 C7.56381848 285.9488235 7.56381848 285.9488235 4.64949989 289.64374924 C0.71145618 293.14592658 -2.70520967 293.39670561 -7.77734375 293.35546875 C-11.35374894 292.78349534 -12.86426542 290.78292688 -15 288 C-17.13576408 284.79635388 -17.25151898 283.98487683 -17.26006222 280.30598736 C-17.2706606 278.85000197 -17.2706606 278.85000197 -17.2814731 277.36460274 C-17.27905802 276.29575036 -17.27664293 275.22689798 -17.27415466 274.12565613 C-17.27939134 272.99209869 -17.28462802 271.85854126 -17.29002339 270.69063359 C-17.30508876 266.87208971 -17.30572998 263.05367905 -17.30639648 259.23510742 C-17.31293004 256.50551205 -17.32239097 253.77592835 -17.33161926 251.04634094 C-17.35448481 243.61660122 -17.36239155 236.18689003 -17.36744571 228.75711989 C-17.37070094 224.11887609 -17.37722238 219.48064061 -17.3844471 214.8424015 C-17.40401511 202.00306433 -17.42041812 189.16373488 -17.42332363 176.32438183 C-17.4235112 175.50250064 -17.42369877 174.68061944 -17.42389202 173.83383276 C-17.42425828 172.1676412 -17.42462198 170.50144965 -17.42498314 168.83525809 C-17.42516595 168.00814587 -17.42534876 167.18103365 -17.42553711 166.32885742 C-17.42571766 165.50073688 -17.42589821 164.67261634 -17.42608423 163.81940124 C-17.42962632 150.39906442 -17.45664993 136.97888801 -17.494035 123.55860683 C-17.53210141 109.7836231 -17.55148099 96.008719 -17.55178314 82.2336815 C-17.55236809 74.49809119 -17.56088416 66.76269222 -17.58978081 59.02715111 C-17.61427252 52.440447 -17.62159273 45.85400402 -17.60653328 39.26726671 C-17.59935482 35.90627721 -17.6029714 32.54622402 -17.62294388 29.18522263 C-17.64327946 25.54145926 -17.63292417 21.89903967 -17.61473083 18.2552948 C-17.6279308 17.19313458 -17.64113077 16.13097436 -17.65473074 15.03662747 C-17.60181416 10.4089137 -17.56339148 7.05539701 -14.58657932 3.35904408 C-10.10686355 -0.72660173 -5.89847104 -0.83102502 0 0 Z " fill="#A9A9A9" transform="translate(304,91)"/>
<path d="M0 0 C3.75212276 2.01502889 5.63644095 3.45466142 8 7 C8.25447559 9.77586937 8.25447559 9.77586937 8.26069641 13.21151733 C8.26778122 14.51260941 8.27486603 15.81370148 8.28216553 17.15422058 C8.2798716 18.5993961 8.27736189 20.04457129 8.2746582 21.48974609 C8.27900462 23.00915274 8.28418753 24.52855719 8.29014587 26.04795837 C8.30355595 30.17817464 8.30411224 34.30829951 8.30158257 38.43853331 C8.30051405 41.88537034 8.30539328 45.3321888 8.310188 48.77902186 C8.3212905 56.91096356 8.32171666 65.04285907 8.31567383 73.17480469 C8.30963471 81.56531119 8.32194173 89.95564998 8.3432439 98.34612787 C8.3608562 105.54791629 8.36686178 112.74965131 8.36360615 119.95146048 C8.36179229 124.25357916 8.3644396 128.55557826 8.37832069 132.85767746 C8.39088814 136.90424613 8.38896532 140.95055338 8.37590981 144.997118 C8.37354196 146.48179907 8.3762862 147.96649847 8.38453293 149.45115852 C8.39498355 151.47892013 8.38510647 153.50675606 8.3742218 155.53451538 C8.37438954 156.66903326 8.37455729 157.80355114 8.37473011 158.97244835 C7.78778493 163.71454618 5.8639577 166.21832399 2.375 169.375 C-1.41603975 171.20031543 -3.56319145 171.31732231 -7.65625 171.04296875 C-11.62542011 169.27668805 -13.9473892 166.83193375 -16 163 C-16.89799052 158.04495011 -16.8215514 153.10657622 -16.77636719 148.08789062 C-16.78450539 146.57112621 -16.79519297 145.05437367 -16.80822754 143.53764343 C-16.83550825 139.43204947 -16.82500641 135.32736327 -16.80595303 131.22175407 C-16.79072491 126.91819755 -16.80486068 122.61471692 -16.81427002 118.31115723 C-16.82517514 111.08506364 -16.81082883 103.8593384 -16.78222656 96.63330078 C-16.74957457 88.28795873 -16.76015236 79.94349627 -16.793185 71.59817553 C-16.8204439 64.42338568 -16.82424008 57.24886009 -16.80855298 50.07403517 C-16.79921562 45.79305072 -16.79790476 41.51247925 -16.81777191 37.23152161 C-16.83515028 33.20590513 -16.82300092 29.18141868 -16.78840637 25.15592384 C-16.78049683 23.68177476 -16.78271065 22.20752998 -16.79598236 20.73341942 C-16.89817637 8.22607221 -16.89817637 8.22607221 -13.07647705 3.63049316 C-9.13738719 -0.13553401 -5.37569266 -0.73940754 0 0 Z " fill="#A7A7A7" transform="translate(119,152)"/>
<path d="M0 0 C4.19881243 1.61492786 6.7110948 3.12222757 9 7 C9.38031673 9.93015194 9.38031673 9.93015194 9.38768005 13.40769958 C9.39758469 14.72699463 9.40748932 16.04628967 9.41769409 17.40556335 C9.41345603 18.86599824 9.40889817 20.32643223 9.40405273 21.78686523 C9.40975548 23.32612606 9.41671936 24.86538265 9.42485046 26.40463257 C9.44280799 30.58441106 9.44160863 34.76397993 9.43590808 38.94378543 C9.43281989 42.43293112 9.43890457 45.92203633 9.44494683 49.41117626 C9.45899903 57.64239713 9.45742507 65.87351424 9.44604492 74.10473633 C9.43456334 82.59699605 9.44863836 91.08893999 9.4754414 99.5811581 C9.49759171 106.87214967 9.50423728 114.16304207 9.49836498 121.45406491 C9.49499254 125.80873713 9.49742941 130.16320693 9.51461601 134.51785088 C9.53007246 138.61293231 9.52614439 142.70754564 9.50731087 146.80260849 C9.50362131 148.30502673 9.50674421 149.80747954 9.51719666 151.30986595 C9.53038459 153.3622234 9.5188817 155.41302614 9.50120544 157.46531677 C9.50099616 158.61328452 9.50078688 159.76125227 9.50057125 160.94400692 C8.79255582 165.26644904 6.69576989 167.7720287 3.1875 170.3125 C-1.44149005 171.76732544 -4.88882572 171.5342184 -9.25 169.4375 C-13.40491616 165.75473341 -14.7827371 162.4011579 -15.27454758 156.9657402 C-15.3913531 153.11652633 -15.40594703 149.27362233 -15.38818359 145.42333984 C-15.39225279 143.94275018 -15.39759663 142.46216355 -15.40411377 140.98158264 C-15.41774943 136.9755146 -15.41250496 132.96967924 -15.40297651 128.96360731 C-15.39536327 124.76590329 -15.40242988 120.56821874 -15.40713501 116.37051392 C-15.41258651 109.32444696 -15.4054156 102.27847448 -15.39111328 95.23242188 C-15.37477523 87.0894847 -15.38008603 78.94677275 -15.3965925 70.80384099 C-15.41020951 63.80578319 -15.41212636 56.80779313 -15.40427649 49.80972636 C-15.39960278 45.63287261 -15.39896705 41.45612472 -15.40888596 37.2792778 C-15.41755696 33.35411219 -15.41153148 29.42923697 -15.39420319 25.50410271 C-15.39023958 24.06457565 -15.39137027 22.62502411 -15.39799118 21.18550682 C-15.40620053 19.21925103 -15.39407594 17.25294177 -15.38095093 15.28671265 C-15.37981985 14.18688742 -15.37868877 13.08706219 -15.37752342 11.95390892 C-14.80327032 7.46070065 -12.85700846 4.88081425 -9.75 1.6875 C-6.17930075 -0.5036109 -4.13360551 -0.50763576 0 0 Z " fill="#A7A7A8" transform="translate(363,152)"/>
<path d="M0 0 C3.5908046 1.37520176 4.65263416 2.4111564 6.60180664 5.71533203 C8.97376938 11.2876014 8.4714229 16.8984021 8.4375 22.875 C8.4674707 24.73705078 8.4674707 24.73705078 8.49804688 26.63671875 C8.49418256 33.89389616 7.99949378 38.87531395 4 45 C1.14548268 47.46877174 -0.65344353 47.94224059 -4.375 48.5625 C-9.17037689 47.81838979 -11.86426413 45.64064249 -15 42 C-16.76371497 36.70885509 -16.34461725 31.02714997 -16.4050293 25.48632812 C-16.42657589 24.00236695 -16.46064059 22.51853173 -16.50756836 21.03515625 C-16.94264609 7.13744187 -16.94264609 7.13744187 -13.2890625 2.5234375 C-9.1359175 -1.22882004 -5.29815267 -0.956857 0 0 Z " fill="#A6A6A7" transform="translate(426,214)"/>
<path d="M0 0 C3.16349419 1.68637628 5.37202541 3.74405083 7 7 C7.25917435 11.49426189 7.27107922 15.9923741 7.29516602 20.49316406 C7.31232983 22.72784469 7.35620843 24.96102621 7.40039062 27.1953125 C7.41052243 28.62498915 7.41903701 30.05467836 7.42578125 31.484375 C7.44036377 32.78084961 7.45494629 34.07732422 7.4699707 35.41308594 C6.92141531 39.59977465 5.62012961 41.73246529 3 45 C-0.97792658 47.72547049 -5.34166842 47.69043129 -10 47 C-13.33600367 44.94161475 -14.8262176 43.2606736 -17 40 C-17.24318901 37.54084328 -17.37566519 35.1970319 -17.40625 32.734375 C-17.41765015 32.02275208 -17.42905029 31.31112915 -17.4407959 30.57794189 C-17.45967474 29.07171553 -17.47275554 27.56540695 -17.48046875 26.05908203 C-17.49982268 23.77096359 -17.56183483 21.48648889 -17.625 19.19921875 C-17.80595645 6.94025998 -17.80595645 6.94025998 -14.3125 2.5 C-9.96196657 -1.39488585 -5.50749216 -1.19301759 0 0 Z " fill="#A7A7A7" transform="translate(59,214)"/>
</svg>
