<svg width="17" height="12" viewBox="0 0 17 12" fill="none" xmlns="http://www.w3.org/2000/svg">
<path d="M8.13403 12H1.13403C0.582033 12 0.134033 11.552 0.134033 11C0.134033 10.448 0.582033 10 1.13403 10H8.13403C8.68603 10 9.13403 10.448 9.13403 11C9.13403 11.552 8.68603 12 8.13403 12Z" fill="#3DBAA2"/>
<path d="M15.134 2H1.13403C0.582033 2 0.134033 1.552 0.134033 1C0.134033 0.448 0.582033 0 1.13403 0H15.134C15.686 0 16.134 0.448 16.134 1C16.134 1.552 15.686 2 15.134 2Z" fill="#3DBAA2"/>
<path d="M15.134 7H1.13403C0.582033 7 0.134033 6.552 0.134033 6C0.134033 5.448 0.582033 5 1.13403 5H15.134C15.686 5 16.134 5.448 16.134 6C16.134 6.552 15.686 7 15.134 7Z" fill="#3DBAA2"/>
</svg>
