<?xml version="1.0" encoding="utf-8"?>
<svg fill="none" height="100" width="100" viewBox="0 0 28 28" xmlns="http://www.w3.org/2000/svg">
  <circle cx="14" cy="14" r="14" fill="#F5B300"/>
  <path fill="#fff" fill-rule="evenodd" d="M12.5884 7.4773c-.0455.1346-.0911.1794-.2278.1346-.6501-.1746-1.3088-.3246-1.9668-.4745a110.469 110.469 0 01-.941-.2172c-.0683.2468-.1274.4758-.1865.7047a40.298 40.298 0 01-.1865.7048c-.0456.0898 0 .1346.0911.1346.0715.0176.1448.0352.2194.0532.306.0735.6357.1527.9653.2609.4101.1346.638.5384.5468.8973-.5468 2.333-1.1391 4.6212-1.7315 6.9094-.0456.314-.319.4935-.6835.4038-.319-.0449-.6835-.1346-1.0025-.2244-.1367 0-.1822 0-.2278.1346-.1367.359-.319.7627-.5013 1.1665a4.38 4.38 0 00-.1139.2468c-.0341.0785-.0683.157-.1139.2468 1.0936.2692 2.1417.5384 3.1897.8076 0 .0525-.0156.0897-.0286.1205-.0091.0217-.017.0403-.017.0589-.2278.7179-.41 1.4806-.5923 2.2433-.0456.0897-.0456.1346.0911.1795.4557.0897.9114.1795 1.367.314.1204.0396.1348.0094.1676-.0596a1.5682 1.5682 0 01.0147-.0301c.0455-.2019.1025-.4038.1595-.6057.0569-.2019.1139-.4038.1594-.6057.0456-.2019.1026-.4038.1595-.6057.057-.2019.1139-.4038.1595-.6057.4101.0898.7746.1795 1.1391.2692h.0001c.0657.0324.0603.0647.0522.1139a.3923.3923 0 00-.0066.0656c-.2279.7179-.4101 1.4806-.5924 2.2433-.0456.0897-.0456.1346.0911.1795.2051.0448.4215.1009.638.157.2164.0561.4328.1122.6379.157.218.0859.2274.0485.2677-.1121l.0057-.0225c.0911-.3589.1823-.729.2734-1.0992.0911-.3701.1823-.7403.2734-1.0992.0456-.1346.1367-.1795.2734-.1346.9113.1346 1.8227.2243 2.7796.0897.7291-.0897 1.367-.4038 1.8682-.987.4101-.4935.638-1.0319.8202-1.6601.1367-.4935.1823-1.0319.0912-1.5254-.1823-.6281-.5468-1.1216-1.0936-1.5254-.0912-.0673-.1823-.1234-.2734-.1795-.0912-.0561-.1823-.1122-.2734-.1795.0533 0 .0911-.0154.1224-.0281.0221-.009.041-.0167.0598-.0167.3646-.1346.7291-.3141 1.0025-.5833.3645-.3589.5468-.8076.6835-1.3011.1823-.7179.1367-1.4357-.2734-2.1087-.319-.4487-.7291-.8076-1.1847-1.0768l-1.5037-.673c-.1367-.0448-.1823-.0897-.1367-.2243.0911-.2243.1367-.4487.1822-.673.1367-.5384.2734-1.0768.4101-1.66-.0228 0-.0341-.0113-.0455-.0225s-.0228-.0224-.0456-.0224c-.2159-.058-.4234-.1077-.6261-.1562-.2678-.064-.5271-.1261-.7865-.2027-.0911-.0449-.1367 0-.1367.0897l-.1367.5384c-.1823.5832-.319 1.1216-.4557 1.7049a.5438.5438 0 00-.0455.0548c-.0304.04-.0608.0798-.0912.0798-.1822-.0449-.3759-.0897-.5695-.1346-.1937-.0449-.3874-.0897-.5696-.1346.0455-.0897.0455-.1346.0455-.1795.0912-.3589.1823-.729.2734-1.0992.0912-.3701.1823-.7403.2734-1.0992.0456-.0897.0456-.1346-.0911-.1795-.4557-.0897-.8658-.1794-1.3214-.314-.1367-.0449-.1823 0-.2279.1346-.0911.3813-.1822.7515-.2734 1.1216-.0911.3702-.1822.7403-.2734 1.1217zm-.9113 10.4089c.0456 0 .0911.0449.0911.0449.1141.0281.2294.0572.3456.0867h.0001c.626.1586 1.2793.3241 1.9327.3619.5468.0449 1.048.0449 1.5493-.1346.8657-.2692 1.2303-1.3908.729-2.1087-.2278-.3589-.5923-.5832-.9569-.8076-.7961-.4354-1.721-.6173-2.608-.7917l-.0804-.0158c-.1246-.0409-.1357-.0073-.1711.1009l-.0112.0337c-.0456.2243-.1025.4374-.1595.6505-.0569.2131-.1139.4262-.1595.6506-.1038.3579-.1929.7158-.284 1.082-.0688.2765-.1388.5577-.2172.8472zm4.3288-4.5763c-.1822.0448-.4101.0897-.5012.0897-.5288 0-.9857-.0708-1.4577-.144a23.2409 23.2409 0 00-.5473-.0803c-.0911-.0225-.1708-.0449-.2506-.0673a7.3435 7.3435 0 00-.2506-.0673c-.0911-.0449-.1367-.0898-.0911-.1795.2734-.9422.5012-1.8395.729-2.7817.0456-.1346.0912-.1794.2279-.1346.1357.0356.2696.0695.4021.103.5347.1352 1.046.2645 1.5573.4803.4101.1794.8202.4486 1.048.8524.4557.7628 0 1.7498-.8658 1.9293z" clip-rule="evenodd"/>
</svg>